#N canvas 263 134 804 436 10;
#X declare -lib mrpeach;
#X obj 28 -206 import mrpeach;
#X obj 28 -81 udpsend;
#X obj 28 -51 tgl 15 0 empty empty empty 17 7 0 10 -262144 -1 -1 1
1;
#X msg 28 -110 connect 127.0.0.1 9000;
#X obj 181 -110 packOSC;
#X obj 28 -163 loadbang;
#X obj 28 -136 bng 15 250 50 0 empty empty empty 17 7 0 10 -262144
-1 -1;
#X msg 181 -143 /tube/on \$1;
#X msg 266 -144 /tube/off \$1;
#X floatatom 229 -215 5 0 0 0 - - -;
#X obj 181 -176 f;
#X obj 190 -214 bng 15 250 50 0 empty empty empty 17 7 0 10 -262144
-1 -1;
#X obj 266 -177 f;
#X obj 279 -215 bng 15 250 50 0 empty empty empty 17 7 0 10 -262144
-1 -1;
#X connect 1 0 2 0;
#X connect 3 0 1 0;
#X connect 4 0 1 0;
#X connect 5 0 6 0;
#X connect 6 0 3 0;
#X connect 7 0 4 0;
#X connect 8 0 4 0;
#X connect 9 0 10 1;
#X connect 9 0 12 1;
#X connect 10 0 7 0;
#X connect 11 0 10 0;
#X connect 12 0 8 0;
#X connect 13 0 12 0;
