#N canvas 800 306 450 300 10;
#X declare -lib mrpeach;
#X obj 34 55 import mrpeach;
#X obj 128 219 udpsend;
#X msg 78 115 connect localhost 9999;
#X msg 231 123 send /bla 1 2 3;
#X obj 209 164 packOSC;
#X connect 2 0 1 0;
#X connect 3 0 4 0;
#X connect 4 0 1 0;
